<?xml version="1.0" encoding="utf-8"?>
<!-- Generator: Adobe Illustrator 23.0.1, SVG Export Plug-In . SVG Version: 6.00 Build 0)  -->
<svg version="1.1" id="Layer_1" xmlns="http://www.w3.org/2000/svg" xmlns:xlink="http://www.w3.org/1999/xlink" x="0px" y="0px"
	 viewBox="0 0 369.99 251.07" enable-background="new 0 0 369.99 251.07" xml:space="preserve">
<g>
	<path d="M168.37,50.91c2.5,4.38,5.76,10.17,9.09,15.92c3.3,5.7,3.12,6.32-3.45,7.74c-4.54,0.98-9.19,1.47-13.75,2.37
		c-3.56,0.7-5.22-0.96-6.21-4.1c-1.55-4.92-3.42-9.74-4.83-14.69c-0.85-3-2.92-3.79-5.25-3c-1.4,0.47-2.98,2.35-3.25,3.82
		c-0.8,4.4-0.76,8.96-1.58,13.36c-0.25,1.37-2.16,3.37-3.41,3.45c-5.78,0.37-11.6,0.16-18.37,0.16c0.89-5.3,1.91-10.07,2.47-14.9
		c1.85-16.19,3.59-32.4,5.26-48.61c0.71-6.86,0.57-6.88,7.24-6.89c8.16-0.01,16.31-0.02,24.47,0.01c2.16,0.01,4.34-0.01,6.48,0.23
		c13.85,1.54,21.61,12.4,17.01,25.55C178,37.9,172.98,43.54,168.37,50.91z M143.26,38.34c9.83,2.17,15.74-2.67,14.72-11.34
		c-0.56-4.81-3.85-6.01-8.07-6.35c-4.47-0.35-4.57,2.59-4.92,5.7C144.55,30.27,143.87,34.16,143.26,38.34z"/>
	<path d="M27.42,5.53c-1,7.39-1.85,13.93-2.79,20.45c-1.08,7.57-2.3,15.13-3.33,22.71c-0.98,7.18,0.77,10.34,5.9,11.1
		c7.37,1.09,11.89-1.97,12.71-9.15c1.5-13.22,2.96-26.46,3.95-39.73c0.33-4.46,1.93-5.69,6.1-5.46c5.26,0.29,10.56,0.07,16.63,0.07
		c-1.28,9.36-2.47,18.03-3.66,26.69c-0.91,6.59-1.82,13.18-2.77,19.77c-2.04,14.12-9.2,22.26-23.11,24.28
		c-6.92,1-14.36,0.81-21.22-0.57C4.07,73.33-1.09,65.24,0.19,53.33C1.51,41.1,2.95,28.87,4.48,16.66C5.88,5.52,5.97,5.53,17.29,5.53
		C20.4,5.53,23.5,5.53,27.42,5.53z"/>
	<path d="M342,76.34c0.42-4.09,0.76-7.35,1.1-10.6c-0.34-0.17-0.68-0.34-1.02-0.5c-1.95,2.87-4.08,5.64-5.8,8.64
		c-1.98,3.44-4.52,3.73-7.98,2.55c-10.24-3.5-14.17-11.74-11.09-24.83c2.98-12.67,10.71-21.61,22.76-26.53
		c2.46-1.01,5.42-0.81,9.02-1.29c0.46-5.65,1.14-11.71,1.39-17.79c0.16-4.02,1.47-6.18,5.84-5.99c4.42,0.19,8.85,0.04,13.79,0.04
		c-1.48,11.32-3,22.31-4.34,33.33c-1.55,12.7-2.86,25.43-4.48,38.12c-0.18,1.42-1.57,3.7-2.62,3.83
		C353.32,75.98,348.02,76.04,342,76.34z M335.45,58.95c0.75,0.28,1.5,0.56,2.24,0.84c2.68-4.97,5.59-9.84,7.89-14.98
		c0.62-1.38-0.04-4.65-1.09-5.22c-2.62-1.4-6.32-2.97-8.25,0.91C333.26,46.49,333.26,52.77,335.45,58.95z"/>
	<path d="M90.08,24.29c-0.38,4.4-0.7,8.11-1.01,11.82c0.39,0.17,0.77,0.33,1.16,0.5c2.05-3.02,4.3-5.93,6.1-9.1
		c2.22-3.9,5.05-4.02,8.83-2.54c7.19,2.82,10.85,7.95,11.03,15.6c0.3,12.68-4.76,22.94-14.45,30.92c-5.5,4.53-8.55,5.28-18.32,5.33
		c-0.41,4.95-1.07,9.99-1.16,15.05c-0.06,3.38-1.24,4.85-4.62,4.77c-4.62-0.1-9.24-0.02-14.72-0.02c0.85-6.86,1.75-13.85,2.57-20.84
		c1.82-15.51,3.69-31.02,5.32-46.55c0.3-2.87,1.16-4.21,4.11-4.27C79.71,24.83,84.49,24.54,90.08,24.29z M96.49,41.68
		c-3.6,1.93-7.22,7.16-9.67,14.84c-0.45,1.4,0.24,4.44,1.1,4.74c2.71,0.94,5.91,3.3,8.56-0.2C99.07,57.64,99,45.55,96.49,41.68z"/>
	<path d="M213.27,223.16c-6.33-31.62-10.84-63.99-37.28-88.55c-5.89,11-11.68,21.15-16.64,31.68c-0.82,1.73,1.25,5.98,3.19,7.68
		c23.84,20.79,27.28,47.73,22.64,77.1c-0.54-2.68-1.27-5.34-1.57-8.05c-1.01-9.06-1.14-18.27-2.93-27.16
		c-3.12-15.46-15.51-32.58-28.78-40.11c-6.79,16.15-13.49,32.11-20.2,48.08c1.05-15.58,4.13-30.65,11.27-44.59
		c7.12-13.89,15.1-27.37,21.57-41.54c2.95-6.47,4.57-14.21,4.35-21.3c-0.33-10.38-2.86-20.69-5.31-31.17
		c-10.85,22.43-30.04,36.7-47.08,53.08c-6.1,5.87-9.31,14.87-13.4,22.67c-1.97,3.76-2.89,8.07-4.51,12.76
		c-1.29-9.59,3.46-26.5,11.16-36.3c6.2-7.89,13.22-15.23,20.51-22.15c11.43-10.85,27.63-23.05,24.56-38.44
		c-6.38-31.98,0.81-13.38-1.14-15.04c-9.94-16.65-17.6-33.45-27.93-51.16c2.04,1.57,1.6,2.42,2.72,3.68
		c6.18,20.57,20.6,35.21,40.31,45.87c4.2,5.73,4.21,8.32,9.33,8.08c12.94,12.15,30.3,29.85,43.06,42.18
		c8.92,8.61,14.52,19.42,17.55,31.75c-14.5-26.25-39.36-41.65-61.59-61.27c1.37,15.61,2.31,29.88,4.09,44.05
		c0.4,3.19,3.63,6.08,5.73,8.98C207.14,161.73,216.1,191.49,213.27,223.16z"/>
	<path d="M179.28,55.44c0.05-16.31,9.83-28.66,24.97-31.55c11.52-2.2,21.98,4.62,23.17,16.13c1.67,16.2-5.23,31.67-22.17,35.94
		C190.17,79.76,179.23,71.15,179.28,55.44z M197.72,52.98c0.13,0.02,0.25,0.03,0.38,0.05c0,1.82-0.28,3.69,0.09,5.44
		c0.3,1.44,1.11,3.55,2.16,3.87c1.49,0.45,3.75,0.02,5.02-0.92c1.3-0.96,2.32-2.92,2.55-4.57c0.61-4.23,1.09-8.56,0.85-12.8
		c-0.11-2-2-3.9-3.08-5.85c-2.16,1.51-5.29,2.56-6.25,4.63C198.04,45.83,198.22,49.56,197.72,52.98z"/>
	<path d="M277.32,44.94c-0.72,18.87-11.1,30.67-28.14,31.98c-8.25,0.64-15.81-4.3-18.62-12.14c-6.44-17.99,5.57-38.19,24.41-41.05
		C268.2,21.73,277.86,30.89,277.32,44.94z M259.07,47.41c-0.12-0.01-0.24-0.03-0.37-0.04c0-1.33,0.35-2.79-0.08-3.97
		c-0.68-1.83-2.16-5.03-2.82-4.91c-2.21,0.4-4.55,1.64-6.14,3.26c-1.11,1.13-1.32,3.37-1.47,5.15c-0.28,3.31-0.36,6.66-0.24,9.98
		c0.08,2.32-0.62,5.95,3.03,5.58c2.26-0.23,5.28-2.3,6.18-4.33C258.59,54.91,258.51,51.02,259.07,47.41z"/>
	<path d="M308.14,25.13c1.82,0.15,3.27,0.35,4.72,0.39c6.65,0.18,8.49,2.79,5.74,8.92c-0.51,1.15-2.8,2.03-4.32,2.12
		c-8.12,0.5-8.14,0.39-9.42,8.64c-0.71,4.56-1.36,9.13-2.13,14.38c2.63-1.14,4.7-2.87,6.24-2.49c1.77,0.44,3.32,2.58,4.48,4.31
		c0.63,0.95,0.83,3.06,0.21,3.83c-2.91,3.61-5.79,7.44-9.41,10.22c-4.61,3.54-9.63,0.75-14.18-0.99c-4.37-1.67-6.32-5.53-5.96-10.03
		c0.52-6.45,1.61-12.86,2.43-19.29c0.33-2.6,0.61-5.2,0.91-7.78c-0.87-0.31-1.31-0.52-1.78-0.62c-2.17-0.48-5.92,0.86-5.23-3.25
		c0.52-3.12-1.45-8.38,5.18-8.14c1.15,0.04,3.4-2.2,3.39-3.36c-0.07-5.86,2.79-8.17,8.29-8.73c3.86-0.39,7.64-1.59,12.31-2.62
		C309.07,16.02,308.63,20.38,308.14,25.13z"/>
</g>
</svg>
